<svg xmlns="http://www.w3.org/2000/svg" viewBox="0 0 31 31"><path d="M1 1h7v7h-7zM10 1h1v3h-1v1h2v3h-1v-1h-1v2h-1v-6h1zM13 1h1v2h-2v-1h1zM16 1h6v1h-6zM23 1h7v7h-7zM2 2v5h5v-5zM24 2v5h5v-5zM3 3h3v3h-3zM15 3h1v1h-1zM17 3h1v1h-1zM19 3h1v1h-1zM21 3h1v1h-1zM25 3h3v3h-3zM12 4h2v1h3v1h1v-2h1v1h1v-1h1v1h1v4h-1v-3h-2v1h-1v1h-1v-1h-1v1h-1v-1h-1v-1h-1v-1h-1zM13 7h1v1h-1zM19 7h1v1h-1zM14 8h1v1h-1zM1 9h1v1h-1zM3 9h5v1h-1v1h-1v-1h-3zM10 9h1v1h-1zM12 9h1v1h-1zM15 9h1v1h-1zM23 9h5v1h2v1h-1v1h1v1h-1v1h-3v-1h2v-1h-1v-1h-1v2h-1v-3h-1v1h-1zM8 10h2v1h-2zM17 10h1v1h-1zM19 10h3v1h-2v1h-2v-1h1zM1 11h1v2h2v1h1v-1h1v1h1v1h-2v1h2v1h1v1h-2v-1h-1v1h-2v1h-1v3h-1v-7h1v2h2v-1h-1v-1h-1v-1h-1zM3 11h1v1h-1zM7 11h1v1h-1zM10 11h1v1h-1zM16 11h1v2h2v1h1v1h-1v1h-2v2h-2v-1h1v-1h-1v1h-1v-2h-2v1h-1v-2h1v-2h1v2h3v1h1v-1h-1v-1h-1v-1h1zM4 12h1v1h-1zM8 12h2v1h-2zM22 12h2v1h-1v1h-1zM7 13h1v1h-1zM10 13h1v1h-1zM20 13h1v1h-1zM24 13h1v1h-1zM9 14h1v2h-1zM21 14h1v1h1v-1h1v1h1v-1h1v1h1v1h-1v1h-1v-1h-1v1h-1v1h-1v-1h-1v2h-1v-3h1zM29 14h1v1h-1zM7 15h1v1h-1zM28 15h1v1h-1zM8 16h1v1h-1zM10 16h1v1h-1zM11 17h1v1h1v1h1v2h-2v-2h-1v3h1v1h-1v1h-1v-1h-1v-1h-2v-1h3v-2h-2v-1h3zM13 17h1v1h-1zM18 17h1v1h-1zM24 17h1v1h-1zM26 17h4v2h-1v-1h-2v1h-2v-1h1zM5 18h1v3h-1zM17 18h1v1h-1zM23 18h1v1h-1zM3 19h1v1h-1zM7 19h1v1h-1zM16 19h1v1h-1zM18 19h2v2h-1v-1h-1zM27 19h2v1h-2zM15 20h1v1h-1zM17 20h1v1h-1zM21 20h2v1h1v-1h1v1h4v1h-1v1h-1v-1h-1v4h-3v1h-2v-3h-1v-1h-1v-1h2zM3 21h2v1h-2zM18 21h1v1h-1zM14 22h2v1h2v1h-1v2h-2v-1h1v-1h-1v1h-1v-1h-1v1h-1v-2h2zM22 22v3h3v-3zM29 22h1v1h-1zM1 23h7v7h-7zM23 23h1v1h-1zM28 23h1v1h-1zM2 24v5h5v-5zM9 24h1v2h1v-1h1v1h2v1h-2v2h-2v-1h-1zM19 24h1v1h-1zM29 24h1v1h-1zM3 25h3v3h-3zM18 25h1v1h1v1h-1v1h-1v-1h-1v-1h1zM27 25h2v1h1v1h-1v2h-1v-1h-1v-1h-1v-1h1zM15 27h2v1h-2zM23 27h1v1h-1zM25 27h1v2h2v1h-3v-1h-1v-1h1zM14 28h1v2h-2v-1h1zM17 28h1v1h1v1h-3v-1h1zM20 28h3v1h-3zM9 29h1v1h-1zM23 29h1v1h-1z"/></svg>